<mxfile host="app.diagrams.net" modified="2023-03-07T03:15:29.593Z" agent="5.0 (Windows NT 10.0; Win64; x64) AppleWebKit/537.36 (KHTML, like Gecko) Chrome/110.0.0.0 Safari/537.36" etag="pgFkbnx1wbcHzn3xISO3" version="21.0.2" type="github">
  <diagram name="Page-1" id="aSnOHPHGzpq2qMvhRXIx">
    <mxGraphModel dx="1864" dy="649" grid="1" gridSize="10" guides="1" tooltips="1" connect="1" arrows="1" fold="1" page="1" pageScale="1" pageWidth="850" pageHeight="1100" math="0" shadow="0">
      <root>
        <mxCell id="0" />
        <mxCell id="1" parent="0" />
        <mxCell id="piBs_AGd4HdenLpcas7U-34" value="String" style="shape=hexagon;perimeter=hexagonPerimeter2;whiteSpace=wrap;html=1;fixedSize=1;" vertex="1" parent="1">
          <mxGeometry x="30" y="210" width="70" height="40" as="geometry" />
        </mxCell>
        <mxCell id="piBs_AGd4HdenLpcas7U-19" style="edgeStyle=orthogonalEdgeStyle;rounded=0;orthogonalLoop=1;jettySize=auto;html=1;" edge="1" parent="1" source="piBs_AGd4HdenLpcas7U-2" target="piBs_AGd4HdenLpcas7U-3">
          <mxGeometry relative="1" as="geometry" />
        </mxCell>
        <mxCell id="piBs_AGd4HdenLpcas7U-2" value="Trainer" style="rounded=1;whiteSpace=wrap;html=1;" vertex="1" parent="1">
          <mxGeometry x="310" width="120" height="60" as="geometry" />
        </mxCell>
        <mxCell id="piBs_AGd4HdenLpcas7U-18" style="edgeStyle=orthogonalEdgeStyle;rounded=0;orthogonalLoop=1;jettySize=auto;html=1;entryX=1;entryY=0.5;entryDx=0;entryDy=0;" edge="1" parent="1" source="piBs_AGd4HdenLpcas7U-3" target="piBs_AGd4HdenLpcas7U-14">
          <mxGeometry relative="1" as="geometry" />
        </mxCell>
        <mxCell id="piBs_AGd4HdenLpcas7U-24" style="edgeStyle=orthogonalEdgeStyle;rounded=0;orthogonalLoop=1;jettySize=auto;html=1;entryX=0.5;entryY=0;entryDx=0;entryDy=0;" edge="1" parent="1" source="piBs_AGd4HdenLpcas7U-3" target="piBs_AGd4HdenLpcas7U-13">
          <mxGeometry relative="1" as="geometry" />
        </mxCell>
        <mxCell id="piBs_AGd4HdenLpcas7U-25" style="edgeStyle=orthogonalEdgeStyle;rounded=0;orthogonalLoop=1;jettySize=auto;html=1;entryX=1;entryY=0.5;entryDx=0;entryDy=0;" edge="1" parent="1" source="piBs_AGd4HdenLpcas7U-3" target="piBs_AGd4HdenLpcas7U-15">
          <mxGeometry relative="1" as="geometry" />
        </mxCell>
        <mxCell id="piBs_AGd4HdenLpcas7U-56" style="edgeStyle=orthogonalEdgeStyle;rounded=0;orthogonalLoop=1;jettySize=auto;html=1;" edge="1" parent="1" source="piBs_AGd4HdenLpcas7U-3" target="piBs_AGd4HdenLpcas7U-4">
          <mxGeometry relative="1" as="geometry">
            <Array as="points">
              <mxPoint x="380" y="300" />
              <mxPoint x="380" y="300" />
            </Array>
          </mxGeometry>
        </mxCell>
        <mxCell id="piBs_AGd4HdenLpcas7U-3" value="PokÃ©mon&amp;nbsp;" style="rounded=1;whiteSpace=wrap;html=1;" vertex="1" parent="1">
          <mxGeometry x="320" y="120" width="120" height="60" as="geometry" />
        </mxCell>
        <mxCell id="piBs_AGd4HdenLpcas7U-72" style="edgeStyle=orthogonalEdgeStyle;rounded=0;orthogonalLoop=1;jettySize=auto;html=1;entryX=0.5;entryY=0;entryDx=0;entryDy=0;" edge="1" parent="1" source="piBs_AGd4HdenLpcas7U-4" target="piBs_AGd4HdenLpcas7U-36">
          <mxGeometry relative="1" as="geometry">
            <Array as="points">
              <mxPoint x="380" y="435" />
              <mxPoint x="315" y="435" />
            </Array>
          </mxGeometry>
        </mxCell>
        <mxCell id="piBs_AGd4HdenLpcas7U-73" style="edgeStyle=orthogonalEdgeStyle;rounded=0;orthogonalLoop=1;jettySize=auto;html=1;entryX=0.5;entryY=0;entryDx=0;entryDy=0;" edge="1" parent="1" source="piBs_AGd4HdenLpcas7U-4" target="piBs_AGd4HdenLpcas7U-40">
          <mxGeometry relative="1" as="geometry" />
        </mxCell>
        <mxCell id="piBs_AGd4HdenLpcas7U-4" value="Type(s)" style="ellipse;whiteSpace=wrap;html=1;" vertex="1" parent="1">
          <mxGeometry x="320" y="320" width="120" height="80" as="geometry" />
        </mxCell>
        <mxCell id="piBs_AGd4HdenLpcas7U-12" value="" style="edgeStyle=orthogonalEdgeStyle;rounded=0;orthogonalLoop=1;jettySize=auto;html=1;" edge="1" parent="1" source="piBs_AGd4HdenLpcas7U-11" target="piBs_AGd4HdenLpcas7U-2">
          <mxGeometry relative="1" as="geometry" />
        </mxCell>
        <mxCell id="piBs_AGd4HdenLpcas7U-11" value="User" style="shape=umlActor;verticalLabelPosition=bottom;verticalAlign=top;html=1;outlineConnect=0;" vertex="1" parent="1">
          <mxGeometry x="240" width="30" height="60" as="geometry" />
        </mxCell>
        <mxCell id="piBs_AGd4HdenLpcas7U-60" style="edgeStyle=orthogonalEdgeStyle;rounded=0;orthogonalLoop=1;jettySize=auto;html=1;entryX=1;entryY=0.5;entryDx=0;entryDy=0;" edge="1" parent="1" source="piBs_AGd4HdenLpcas7U-13" target="piBs_AGd4HdenLpcas7U-4">
          <mxGeometry relative="1" as="geometry" />
        </mxCell>
        <mxCell id="piBs_AGd4HdenLpcas7U-93" value="" style="edgeStyle=orthogonalEdgeStyle;rounded=0;orthogonalLoop=1;jettySize=auto;html=1;" edge="1" parent="1" source="piBs_AGd4HdenLpcas7U-13" target="piBs_AGd4HdenLpcas7U-91">
          <mxGeometry relative="1" as="geometry" />
        </mxCell>
        <mxCell id="piBs_AGd4HdenLpcas7U-94" style="edgeStyle=orthogonalEdgeStyle;rounded=0;orthogonalLoop=1;jettySize=auto;html=1;entryX=0.5;entryY=0;entryDx=0;entryDy=0;" edge="1" parent="1" source="piBs_AGd4HdenLpcas7U-13" target="piBs_AGd4HdenLpcas7U-92">
          <mxGeometry relative="1" as="geometry" />
        </mxCell>
        <mxCell id="piBs_AGd4HdenLpcas7U-13" value="Battle Moves" style="ellipse;whiteSpace=wrap;html=1;" vertex="1" parent="1">
          <mxGeometry x="560" y="270" width="120" height="80" as="geometry" />
        </mxCell>
        <mxCell id="piBs_AGd4HdenLpcas7U-55" style="edgeStyle=orthogonalEdgeStyle;rounded=0;orthogonalLoop=1;jettySize=auto;html=1;entryX=0.5;entryY=0;entryDx=0;entryDy=0;" edge="1" parent="1" source="piBs_AGd4HdenLpcas7U-14" target="piBs_AGd4HdenLpcas7U-34">
          <mxGeometry relative="1" as="geometry" />
        </mxCell>
        <mxCell id="piBs_AGd4HdenLpcas7U-14" value="Name" style="ellipse;whiteSpace=wrap;html=1;" vertex="1" parent="1">
          <mxGeometry x="5" y="90" width="120" height="80" as="geometry" />
        </mxCell>
        <mxCell id="piBs_AGd4HdenLpcas7U-89" style="edgeStyle=orthogonalEdgeStyle;rounded=0;orthogonalLoop=1;jettySize=auto;html=1;" edge="1" parent="1" source="piBs_AGd4HdenLpcas7U-15" target="piBs_AGd4HdenLpcas7U-65">
          <mxGeometry relative="1" as="geometry" />
        </mxCell>
        <mxCell id="piBs_AGd4HdenLpcas7U-90" style="edgeStyle=orthogonalEdgeStyle;rounded=0;orthogonalLoop=1;jettySize=auto;html=1;entryX=0.5;entryY=0;entryDx=0;entryDy=0;" edge="1" parent="1" source="piBs_AGd4HdenLpcas7U-15" target="piBs_AGd4HdenLpcas7U-77">
          <mxGeometry relative="1" as="geometry" />
        </mxCell>
        <mxCell id="piBs_AGd4HdenLpcas7U-15" value="Stats" style="ellipse;whiteSpace=wrap;html=1;" vertex="1" parent="1">
          <mxGeometry x="90" y="250" width="120" height="80" as="geometry" />
        </mxCell>
        <mxCell id="piBs_AGd4HdenLpcas7U-36" value="Attacking" style="swimlane;fontStyle=0;childLayout=stackLayout;horizontal=1;startSize=30;horizontalStack=0;resizeParent=1;resizeParentMax=0;resizeLast=0;collapsible=1;marginBottom=0;whiteSpace=wrap;html=1;" vertex="1" parent="1">
          <mxGeometry x="260" y="470" width="110" height="120" as="geometry">
            <mxRectangle x="10" y="470" width="90" height="30" as="alternateBounds" />
          </mxGeometry>
        </mxCell>
        <mxCell id="piBs_AGd4HdenLpcas7U-37" value="Super Effective&amp;nbsp;" style="text;strokeColor=none;fillColor=none;align=left;verticalAlign=middle;spacingLeft=4;spacingRight=4;overflow=hidden;points=[[0,0.5],[1,0.5]];portConstraint=eastwest;rotatable=0;whiteSpace=wrap;html=1;" vertex="1" parent="piBs_AGd4HdenLpcas7U-36">
          <mxGeometry y="30" width="110" height="30" as="geometry" />
        </mxCell>
        <mxCell id="piBs_AGd4HdenLpcas7U-38" value="Not very effective&amp;nbsp;" style="text;strokeColor=none;fillColor=none;align=left;verticalAlign=middle;spacingLeft=4;spacingRight=4;overflow=hidden;points=[[0,0.5],[1,0.5]];portConstraint=eastwest;rotatable=0;whiteSpace=wrap;html=1;" vertex="1" parent="piBs_AGd4HdenLpcas7U-36">
          <mxGeometry y="60" width="110" height="30" as="geometry" />
        </mxCell>
        <mxCell id="piBs_AGd4HdenLpcas7U-39" value="&lt;br&gt;No effect&amp;nbsp;" style="text;strokeColor=none;fillColor=none;align=left;verticalAlign=middle;spacingLeft=4;spacingRight=4;overflow=hidden;points=[[0,0.5],[1,0.5]];portConstraint=eastwest;rotatable=0;whiteSpace=wrap;html=1;" vertex="1" parent="piBs_AGd4HdenLpcas7U-36">
          <mxGeometry y="90" width="110" height="30" as="geometry" />
        </mxCell>
        <mxCell id="piBs_AGd4HdenLpcas7U-40" value="Defending&amp;nbsp;" style="swimlane;fontStyle=0;childLayout=stackLayout;horizontal=1;startSize=30;horizontalStack=0;resizeParent=1;resizeParentMax=0;resizeLast=0;collapsible=1;marginBottom=0;whiteSpace=wrap;html=1;" vertex="1" parent="1">
          <mxGeometry x="410" y="470" width="110" height="120" as="geometry" />
        </mxCell>
        <mxCell id="piBs_AGd4HdenLpcas7U-41" value="Super Effective&amp;nbsp;" style="text;strokeColor=none;fillColor=none;align=left;verticalAlign=middle;spacingLeft=4;spacingRight=4;overflow=hidden;points=[[0,0.5],[1,0.5]];portConstraint=eastwest;rotatable=0;whiteSpace=wrap;html=1;" vertex="1" parent="piBs_AGd4HdenLpcas7U-40">
          <mxGeometry y="30" width="110" height="30" as="geometry" />
        </mxCell>
        <mxCell id="piBs_AGd4HdenLpcas7U-42" value="Not very effective&amp;nbsp;" style="text;strokeColor=none;fillColor=none;align=left;verticalAlign=middle;spacingLeft=4;spacingRight=4;overflow=hidden;points=[[0,0.5],[1,0.5]];portConstraint=eastwest;rotatable=0;whiteSpace=wrap;html=1;" vertex="1" parent="piBs_AGd4HdenLpcas7U-40">
          <mxGeometry y="60" width="110" height="30" as="geometry" />
        </mxCell>
        <mxCell id="piBs_AGd4HdenLpcas7U-43" value="&lt;br&gt;No effect&amp;nbsp;" style="text;strokeColor=none;fillColor=none;align=left;verticalAlign=middle;spacingLeft=4;spacingRight=4;overflow=hidden;points=[[0,0.5],[1,0.5]];portConstraint=eastwest;rotatable=0;whiteSpace=wrap;html=1;" vertex="1" parent="piBs_AGd4HdenLpcas7U-40">
          <mxGeometry y="90" width="110" height="30" as="geometry" />
        </mxCell>
        <mxCell id="piBs_AGd4HdenLpcas7U-65" value="Beginning Stats" style="swimlane;fontStyle=0;childLayout=stackLayout;horizontal=1;startSize=30;horizontalStack=0;resizeParent=1;resizeParentMax=0;resizeLast=0;collapsible=1;marginBottom=0;whiteSpace=wrap;html=1;" vertex="1" parent="1">
          <mxGeometry x="-70" y="370" width="120" height="210" as="geometry">
            <mxRectangle x="30" y="390" width="70" height="30" as="alternateBounds" />
          </mxGeometry>
        </mxCell>
        <mxCell id="piBs_AGd4HdenLpcas7U-66" value="Health" style="text;strokeColor=none;fillColor=none;align=left;verticalAlign=middle;spacingLeft=4;spacingRight=4;overflow=hidden;points=[[0,0.5],[1,0.5]];portConstraint=eastwest;rotatable=0;whiteSpace=wrap;html=1;" vertex="1" parent="piBs_AGd4HdenLpcas7U-65">
          <mxGeometry y="30" width="120" height="30" as="geometry" />
        </mxCell>
        <mxCell id="piBs_AGd4HdenLpcas7U-67" value="Attack" style="text;strokeColor=none;fillColor=none;align=left;verticalAlign=middle;spacingLeft=4;spacingRight=4;overflow=hidden;points=[[0,0.5],[1,0.5]];portConstraint=eastwest;rotatable=0;whiteSpace=wrap;html=1;" vertex="1" parent="piBs_AGd4HdenLpcas7U-65">
          <mxGeometry y="60" width="120" height="30" as="geometry" />
        </mxCell>
        <mxCell id="piBs_AGd4HdenLpcas7U-68" value="Defense" style="text;strokeColor=none;fillColor=none;align=left;verticalAlign=middle;spacingLeft=4;spacingRight=4;overflow=hidden;points=[[0,0.5],[1,0.5]];portConstraint=eastwest;rotatable=0;whiteSpace=wrap;html=1;" vertex="1" parent="piBs_AGd4HdenLpcas7U-65">
          <mxGeometry y="90" width="120" height="30" as="geometry" />
        </mxCell>
        <mxCell id="piBs_AGd4HdenLpcas7U-74" value="Special Attack&amp;nbsp;" style="text;strokeColor=none;fillColor=none;align=left;verticalAlign=middle;spacingLeft=4;spacingRight=4;overflow=hidden;points=[[0,0.5],[1,0.5]];portConstraint=eastwest;rotatable=0;whiteSpace=wrap;html=1;" vertex="1" parent="piBs_AGd4HdenLpcas7U-65">
          <mxGeometry y="120" width="120" height="30" as="geometry" />
        </mxCell>
        <mxCell id="piBs_AGd4HdenLpcas7U-75" value="Special Defense" style="text;strokeColor=none;fillColor=none;align=left;verticalAlign=middle;spacingLeft=4;spacingRight=4;overflow=hidden;points=[[0,0.5],[1,0.5]];portConstraint=eastwest;rotatable=0;whiteSpace=wrap;html=1;" vertex="1" parent="piBs_AGd4HdenLpcas7U-65">
          <mxGeometry y="150" width="120" height="30" as="geometry" />
        </mxCell>
        <mxCell id="piBs_AGd4HdenLpcas7U-76" value="Speed" style="text;strokeColor=none;fillColor=none;align=left;verticalAlign=middle;spacingLeft=4;spacingRight=4;overflow=hidden;points=[[0,0.5],[1,0.5]];portConstraint=eastwest;rotatable=0;whiteSpace=wrap;html=1;" vertex="1" parent="piBs_AGd4HdenLpcas7U-65">
          <mxGeometry y="180" width="120" height="30" as="geometry" />
        </mxCell>
        <mxCell id="piBs_AGd4HdenLpcas7U-77" value="During Battle" style="swimlane;fontStyle=0;childLayout=stackLayout;horizontal=1;startSize=30;horizontalStack=0;resizeParent=1;resizeParentMax=0;resizeLast=0;collapsible=1;marginBottom=0;whiteSpace=wrap;html=1;" vertex="1" parent="1">
          <mxGeometry x="80" y="430" width="110" height="150" as="geometry">
            <mxRectangle x="30" y="390" width="70" height="30" as="alternateBounds" />
          </mxGeometry>
        </mxCell>
        <mxCell id="piBs_AGd4HdenLpcas7U-78" value="Current Health" style="text;strokeColor=none;fillColor=none;align=left;verticalAlign=middle;spacingLeft=4;spacingRight=4;overflow=hidden;points=[[0,0.5],[1,0.5]];portConstraint=eastwest;rotatable=0;whiteSpace=wrap;html=1;" vertex="1" parent="piBs_AGd4HdenLpcas7U-77">
          <mxGeometry y="30" width="110" height="30" as="geometry" />
        </mxCell>
        <mxCell id="piBs_AGd4HdenLpcas7U-79" value="Accuracy&amp;nbsp;" style="text;strokeColor=none;fillColor=none;align=left;verticalAlign=middle;spacingLeft=4;spacingRight=4;overflow=hidden;points=[[0,0.5],[1,0.5]];portConstraint=eastwest;rotatable=0;whiteSpace=wrap;html=1;" vertex="1" parent="piBs_AGd4HdenLpcas7U-77">
          <mxGeometry y="60" width="110" height="30" as="geometry" />
        </mxCell>
        <mxCell id="piBs_AGd4HdenLpcas7U-80" value="Evasion" style="text;strokeColor=none;fillColor=none;align=left;verticalAlign=middle;spacingLeft=4;spacingRight=4;overflow=hidden;points=[[0,0.5],[1,0.5]];portConstraint=eastwest;rotatable=0;whiteSpace=wrap;html=1;" vertex="1" parent="piBs_AGd4HdenLpcas7U-77">
          <mxGeometry y="90" width="110" height="30" as="geometry" />
        </mxCell>
        <mxCell id="piBs_AGd4HdenLpcas7U-81" value="Modifiers" style="text;strokeColor=none;fillColor=none;align=left;verticalAlign=middle;spacingLeft=4;spacingRight=4;overflow=hidden;points=[[0,0.5],[1,0.5]];portConstraint=eastwest;rotatable=0;whiteSpace=wrap;html=1;" vertex="1" parent="piBs_AGd4HdenLpcas7U-77">
          <mxGeometry y="120" width="110" height="30" as="geometry" />
        </mxCell>
        <mxCell id="piBs_AGd4HdenLpcas7U-91" value="Damage Moves" style="shape=hexagon;perimeter=hexagonPerimeter2;whiteSpace=wrap;html=1;fixedSize=1;" vertex="1" parent="1">
          <mxGeometry x="580" y="420" width="120" height="80" as="geometry" />
        </mxCell>
        <mxCell id="piBs_AGd4HdenLpcas7U-92" value="Status Moves" style="shape=hexagon;perimeter=hexagonPerimeter2;whiteSpace=wrap;html=1;fixedSize=1;" vertex="1" parent="1">
          <mxGeometry x="720" y="420" width="120" height="80" as="geometry" />
        </mxCell>
        <mxCell id="piBs_AGd4HdenLpcas7U-101" value="Charge" style="shape=hexagon;perimeter=hexagonPerimeter2;whiteSpace=wrap;html=1;fixedSize=1;" vertex="1" parent="1">
          <mxGeometry x="460" y="630" width="120" height="80" as="geometry" />
        </mxCell>
        <mxCell id="piBs_AGd4HdenLpcas7U-102" value="Recharge" style="shape=hexagon;perimeter=hexagonPerimeter2;whiteSpace=wrap;html=1;fixedSize=1;" vertex="1" parent="1">
          <mxGeometry x="590" y="640" width="120" height="80" as="geometry" />
        </mxCell>
        <mxCell id="piBs_AGd4HdenLpcas7U-103" value="Hidden" style="shape=hexagon;perimeter=hexagonPerimeter2;whiteSpace=wrap;html=1;fixedSize=1;" vertex="1" parent="1">
          <mxGeometry x="700" y="650" width="120" height="80" as="geometry" />
        </mxCell>
        <mxCell id="piBs_AGd4HdenLpcas7U-104" value="Hidden" style="shape=hexagon;perimeter=hexagonPerimeter2;whiteSpace=wrap;html=1;fixedSize=1;" vertex="1" parent="1">
          <mxGeometry x="650" y="540" width="120" height="80" as="geometry" />
        </mxCell>
      </root>
    </mxGraphModel>
  </diagram>
</mxfile>
